<svg xmlns="http://www.w3.org/2000/svg" viewBox="0 0 347.13 202.08"><defs><style>.cls-1{fill:#1ed188;}.cls-2{fill:#0fba74;}.cls-3{fill:#e6eaee;}.cls-4{fill:#aab5bd;}.cls-5{fill:#fff;}.cls-6{fill:none;stroke:#fff;stroke-linecap:round;stroke-miterlimit:10;stroke-width:3px;}.cls-7{fill:#cfd1dd;}</style></defs><g id="Layer_2" data-name="Layer 2"><g id="Layer_1-2" data-name="Layer 1"><g id="HGN_Logo" data-name="HGN Logo"><rect class="cls-1" x="79.41" y="78.81" width="202.45" height="123.26"/><polygon class="cls-2" points="281.85 78.81 79.41 78.81 180.64 5.67 281.85 78.81"/><path class="cls-3" d="M96.74,22V175.23h168V22a20.6,20.6,0,0,1,20.6-20.6h-168A20.6,20.6,0,0,0,96.74,22Z"/><rect class="cls-4" x="113.63" y="32.76" width="58.18" height="6.53"/><rect class="cls-4" x="113.63" y="50.93" width="58.18" height="6.53"/><rect class="cls-4" x="113.63" y="69.09" width="58.18" height="6.53"/><rect class="cls-4" x="113.63" y="87.25" width="58.18" height="6.53"/><path class="cls-4" d="M285.34.41A20.61,20.61,0,0,1,305.94,21V32.58a20.6,20.6,0,0,0,20.6,20.6h-61.8V21A20.6,20.6,0,0,1,285.34.41Z"/><path class="cls-3" d="M326.54,53.18a20.6,20.6,0,0,1-20.6-20.6h41.19A20.6,20.6,0,0,1,326.54,53.18Z"/><circle class="cls-1" cx="218.37" cy="58.46" r="26.51"/><circle class="cls-5" cx="208.85" cy="50.5" r="2.6"/><circle class="cls-5" cx="227.52" cy="50.5" r="2.6"/><path class="cls-6" d="M203.29,67.74h0a24.71,24.71,0,0,0,30.53,0h0"/><polygon class="cls-2" points="281.86 78.81 281.86 202.06 79.4 202.06 79.4 78.81 96.61 88 96.61 151.72 264.62 151.72 264.62 88.03 281.86 78.81"/><polygon class="cls-7" points="264.62 88.03 264.62 151.72 96.61 151.72 96.61 88 121.07 101.07 133.29 107.6 180.63 132.89 264.62 88.03"/><polygon class="cls-1" points="281.85 78.81 281.85 202.07 180.64 140.44 281.85 78.81"/><polygon class="cls-1" points="180.64 140.44 79.41 202.07 79.41 78.81 180.64 140.44"/><polygon class="cls-2" points="281.85 202.07 79.41 202.07 180.64 140.44 281.85 202.07"/><g id="HEY"><path class="cls-1" d="M5.55,171.26H55.61q-.49,15.41-1,30.8H6.55Q6.06,186.67,5.55,171.26Z"/><path class="cls-1" d="M5.18,159.81H56Q58.58,79.91,61.16,0H0Q2.6,79.91,5.18,159.81Z"/><path class="cls-5" d="M35.88,34.06h-12L24,46.35H12.45L11.73,10.6h12q0,6.63.1,13.26H35.94q0-6.63.07-13.26H48l-.67,35.75H35.81Q35.84,40.2,35.88,34.06Z"/><path class="cls-5" d="M15.44,63.44h29.4q-.06,4.31-.14,8.62h-18c0,3.46,0,4.13,0,5.3h15l-.1,8.16H26.77l0,5H44.92l-.15,8.66H16Q15.72,81.32,15.44,63.44Z"/><path class="cls-5" d="M35.21,152H25q0-6.92-.1-13.82Q19.17,128,13.12,117.85c.11-.52.22-1,.32-1.58H23.56q3.63,5.92,7.15,11.83,3.21-5.91,6.52-11.83h9.66c.12.46.25.92.37,1.38q-6.13,10.41-12,20.81Q35.26,145.24,35.21,152Z"/></g></g></g></g></svg>